ply
format ascii 1.0
comment beispielmodell - farbige beulen-kugel
element vertex 642
property float x
property float y
property float z
property uchar red
property uchar green
property uchar blue
element face 1280
property list uchar int vertex_indices
end_header
-0.496560 0.803451 0.000000 64 229 127
0.517200 0.836847 0.000000 193 234 127
-0.534263 -0.864455 0.000000 59 17 127
0.554902 -0.897851 0.000000 198 13 127
0.000000 -0.496560 0.803451 127 64 229
0.000000 0.517200 0.836847 127 193 234
0.000000 -0.534263 -0.864455 127 59 17
0.000000 0.554902 -0.897851 127 198 13
0.803451 0.000000 -0.496560 229 127 64
0.836847 0.000000 0.517200 234 127 193
-0.864455 0.000000 -0.534263 17 127 59
-0.897851 0.000000 0.554902 13 127 198
-0.886153 0.547673 0.338480 14 197 170
-0.492314 0.304267 0.796581 64 166 229
-0.294349 0.770615 0.476266 89 225 188
0.319062 0.835315 0.516253 168 234 193
0.000000 0.961643 0.000000 127 250 127
0.304267 0.796581 -0.492314 166 229 64
-0.279554 0.731881 -0.452327 91 220 69
-0.523734 0.323685 -0.847419 60 168 19
-0.821453 0.507686 -0.313767 22 192 87
-1.038357 0.000000 0.000000 0 127 127
0.516253 0.319062 0.835315 193 168 234
0.835315 0.516253 0.319062 234 193 168
-0.452327 -0.279554 0.731881 69 91 220
0.000000 0.000000 0.961643 127 127 250
-0.782719 -0.483747 -0.298972 27 65 89
-0.847419 -0.523734 0.323685 19 60 168
0.000000 0.000000 -1.038357 127 127 0
-0.483747 -0.298972 -0.782719 65 89 27
0.770615 0.476266 -0.294349 225 188 89
0.547673 0.338480 -0.886153 197 170 14
0.796581 -0.492314 0.304267 229 64 166
0.476266 -0.294349 0.770615 188 89 225
0.338480 -0.886153 0.547673 170 14 197
-0.313767 -0.821453 0.507686 87 22 192
0.000000 -1.038357 0.000000 127 0 127
-0.298972 -0.782719 -0.483747 89 27 65
0.323685 -0.847419 -0.523734 168 19 60
0.507686 -0.313767 -0.821453 192 87 22
0.731881 -0.452327 -0.279554 220 69 91
0.961643 0.000000 0.000000 250 127 127
-0.712670 0.721161 0.164995 36 219 148
-0.596091 0.697916 0.431336 51 216 182
-0.420280 0.835611 0.251740 73 234 159
-0.723343 0.165494 0.714826 35 148 218
-0.725234 0.448219 0.619424 35 184 206
-0.956214 0.288074 0.480938 5 164 188
-0.151618 0.654891 0.662694 108 210 211
-0.409281 0.565612 0.662230 75 199 211
-0.248886 0.415513 0.826135 95 180 232
-0.157536 0.922233 0.254899 107 245 159
-0.251685 0.885967 0.000000 95 240 127
0.160864 0.694826 0.703104 148 216 217
0.000000 0.836847 0.517200 127 234 193
0.273091 0.961319 0.000000 162 250 127
0.166970 0.977461 0.270164 148 252 161
0.448955 0.892623 0.268916 184 241 161
-0.144965 0.848638 -0.234558 109 235 97
-0.386839 0.769123 -0.231710 78 225 97
0.415513 0.826135 -0.248886 180 232 95
0.154399 0.903865 -0.249822 147 242 95
-0.156249 0.674891 -0.682932 107 213 40
0.000000 0.803451 -0.496560 127 229 64
0.165494 0.714826 -0.723343 148 218 35
-0.556147 0.651148 -0.402432 56 210 76
-0.672735 0.680750 -0.155750 41 214 107
-0.268043 0.447497 -0.889726 93 184 14
-0.419315 0.579479 -0.678466 74 201 40
-0.899202 0.270898 -0.452264 12 162 69
-0.714152 0.441370 -0.609959 36 183 49
-0.741399 0.169626 -0.732670 32 149 34
-0.897851 0.554902 0.000000 13 198 127
-0.962558 0.000000 -0.273443 4 127 92
-0.998248 0.275909 -0.170521 0 162 105
-1.053476 0.291173 0.179955 0 164 150
-1.037910 0.000000 0.294848 0 127 165
0.605556 0.708997 0.438184 204 217 183
0.694826 0.703104 0.160864 216 217 148
0.268916 0.448955 0.892623 161 184 241
0.438184 0.605556 0.708997 183 204 217
0.892623 0.268916 0.448955 241 161 184
0.708997 0.438184 0.605556 217 183 204
0.703104 0.160864 0.694826 217 148 216
-0.249822 0.154399 0.903865 95 147 242
0.000000 0.273091 0.961319 127 162 250
-0.682932 -0.156249 0.674891 40 107 213
-0.496560 0.000000 0.803451 64 127 229
0.000000 -0.251685 0.885967 127 95 240
-0.234558 -0.144965 0.848638 97 109 235
-0.231710 -0.386839 0.769123 97 78 225
-0.979880 -0.270832 0.167383 2 92 148
-0.889726 -0.268043 0.447497 14 93 184
-0.832714 -0.250868 -0.418823 21 95 74
-0.924652 -0.255568 -0.157949 9 94 107
-0.732670 -0.741399 0.169626 34 32 149
-0.864455 -0.534263 0.000000 17 59 127
-0.692735 -0.700988 -0.160380 39 38 107
-0.534263 0.000000 -0.864455 59 127 17
-0.700988 -0.160380 -0.692735 38 107 39
0.000000 0.294848 -1.037910 127 165 0
-0.270832 0.167383 -0.979880 92 148 2
-0.250868 -0.418823 -0.832714 95 74 21
-0.255568 -0.157949 -0.924652 94 107 9
0.000000 -0.273443 -0.962558 127 92 4
0.448219 0.619424 -0.725234 184 206 35
0.288074 0.480938 -0.956214 164 188 5
0.654891 0.662694 -0.151618 210 211 108
0.565612 0.662230 -0.409281 199 211 75
0.721161 0.164995 -0.712670 219 148 36
0.697916 0.431336 -0.596091 216 182 51
0.835611 0.251740 -0.420280 234 159 73
0.714826 -0.723343 0.165494 218 35 148
0.619424 -0.725234 0.448219 206 35 184
0.480938 -0.956214 0.288074 188 5 164
0.662694 -0.151618 0.654891 211 108 210
0.662230 -0.409281 0.565612 211 75 199
0.826135 -0.248886 0.415513 232 95 180
0.164995 -0.712670 0.721161 148 36 219
0.431336 -0.596091 0.697916 182 51 216
0.251740 -0.420280 0.835611 159 73 234
0.179955 -1.053476 0.291173 150 0 164
0.294848 -1.037910 0.000000 165 0 127
-0.155750 -0.672735 0.680750 107 41 214
0.000000 -0.897851 0.554902 127 13 198
-0.273443 -0.962558 0.000000 92 4 127
-0.170521 -0.998248 0.275909 105 0 162
-0.452264 -0.899202 0.270898 69 12 162
0.167383 -0.979880 -0.270832 148 2 92
0.447497 -0.889726 -0.268043 184 14 93
-0.418823 -0.832714 -0.250868 74 21 95
-0.157949 -0.924652 -0.255568 107 9 94
0.169626 -0.732670 -0.741399 149 34 32
0.000000 -0.864455 -0.534263 127 17 59
-0.160380 -0.692735 -0.700988 107 39 38
0.579479 -0.678466 -0.419315 201 40 74
0.674891 -0.682932 -0.156249 213 40 107
0.270898 -0.452264 -0.899202 162 69 12
0.441370 -0.609959 -0.714152 183 49 36
0.769123 -0.231710 -0.386839 225 97 78
0.651148 -0.402432 -0.556147 210 76 56
0.680750 -0.155750 -0.672735 214 107 41
0.803451 -0.496560 0.000000 229 64 127
0.885967 0.000000 -0.251685 240 127 95
0.848638 -0.234558 -0.144965 235 97 109
0.903865 -0.249822 0.154399 242 95 147
0.961319 0.000000 0.273091 250 127 162
0.254899 -0.157536 0.922233 159 107 245
0.517200 0.000000 0.836847 193 127 234
0.270164 0.166970 0.977461 161 148 252
-0.609959 -0.714152 0.441370 49 36 183
-0.402432 -0.556147 0.651148 76 56 210
-0.678466 -0.419315 0.579479 40 74 201
-0.412466 -0.570015 -0.667385 74 54 42
-0.570015 -0.667385 -0.412466 54 42 74
-0.667385 -0.412466 -0.570015 42 74 54
0.554902 0.000000 -0.897851 198 127 13
0.275909 -0.170521 -0.998248 162 105 0
0.291173 0.179955 -1.053476 164 150 0
0.977461 0.270164 0.166970 252 161 148
0.922233 0.254899 -0.157536 245 159 107
0.836847 0.517200 0.000000 234 193 127
-0.606518 0.772226 0.079885 50 225 137
-0.568078 0.788245 0.211839 55 228 154
-0.465554 0.831206 0.126085 68 233 143
-0.748864 0.637022 0.393701 32 208 177
-0.666307 0.722807 0.304644 42 219 166
-0.808433 0.646643 0.252643 24 209 159
-0.361616 0.813709 0.369885 81 231 174
-0.511064 0.775775 0.342761 62 226 171
-0.442149 0.738166 0.456212 71 221 185
-0.820193 0.084847 0.644192 22 138 209
-0.852529 0.229115 0.614406 18 156 205
-0.940858 0.142718 0.526969 7 145 194
-0.612119 0.378310 0.719589 49 175 219
-0.737766 0.310949 0.680097 33 167 214
-0.611993 0.239105 0.765113 49 157 225
-0.937597 0.426200 0.416673 7 181 180
-0.853005 0.376884 0.561942 18 175 199
-0.821178 0.507516 0.491872 22 192 190
-0.077737 0.590212 0.751465 117 202 223
-0.201727 0.540961 0.750619 101 196 223
-0.126599 0.467451 0.834595 111 187 233
-0.353771 0.672912 0.572413 82 213 200
-0.278803 0.609790 0.661498 91 205 211
-0.223564 0.715381 0.572214 98 218 200
-0.370306 0.362028 0.814635 80 173 231
-0.330155 0.492268 0.747244 85 190 222
-0.458026 0.443907 0.741102 69 184 221
-0.671138 0.585688 0.532876 41 202 195
-0.567359 0.516200 0.650135 55 193 210
-0.506806 0.638304 0.557034 62 208 198
-0.338742 0.874025 0.124494 84 238 143
-0.372817 0.845764 0.000000 79 235 127
-0.229504 0.856762 0.371345 98 236 174
-0.288961 0.878843 0.253303 90 239 159
-0.129081 0.926744 0.000000 111 245 127
-0.208952 0.917374 0.126057 100 244 143
-0.079752 0.957783 0.129042 117 249 143
0.080295 0.609637 0.776198 137 205 226
0.000000 0.681331 0.689449 127 214 215
0.158634 0.851990 0.526559 147 236 194
0.080319 0.772295 0.613952 137 225 205
0.241140 0.771622 0.617200 158 225 206
-0.077757 0.747661 0.594368 117 222 203
-0.149813 0.804616 0.497280 108 230 190
0.401929 0.911807 0.000000 178 243 127
0.366707 0.946181 0.134771 174 248 144
0.491090 0.876800 0.133001 190 239 144
0.082382 0.989367 0.133297 138 253 144
0.224650 0.986295 0.135527 156 253 144
0.136104 0.977166 0.000000 144 252 127
0.390240 0.878118 0.399163 177 239 178
0.313012 0.951990 0.274385 167 248 162
0.247254 0.923026 0.400065 159 245 178
-0.080746 0.895485 0.391949 117 241 177
0.083381 0.924707 0.404739 138 245 179
0.000000 0.962988 0.266163 127 250 161
-0.321210 0.828789 -0.118050 86 233 112
-0.441915 0.789001 -0.119683 71 228 112
-0.075691 0.909004 -0.122470 117 243 111
-0.198100 0.869731 -0.119510 102 238 112
-0.333404 0.750226 -0.341028 84 223 84
-0.265612 0.807829 -0.232835 93 230 97
-0.211634 0.790054 -0.342432 100 228 83
0.467451 0.834595 -0.126599 187 233 111
0.349176 0.900945 -0.128328 172 242 111
0.229385 0.856318 -0.371152 156 236 80
0.289663 0.880976 -0.253918 164 239 95
0.362028 0.814635 -0.370306 173 231 80
0.213799 0.938652 -0.128981 154 247 111
0.078321 0.940588 -0.126725 137 247 111
-0.082288 0.624766 -0.795460 117 207 26
0.000000 0.703994 -0.712382 127 217 36
0.084847 0.644192 -0.820193 138 209 22
-0.143322 0.769754 -0.475734 109 225 66
-0.077495 0.745140 -0.592364 117 222 51
-0.221529 0.708871 -0.567007 99 217 55
0.239105 0.765113 -0.611993 157 225 49
0.080057 0.769774 -0.611948 137 225 49
0.152143 0.817128 -0.505013 146 231 63
0.000000 0.888066 -0.245456 127 240 96
0.077387 0.858234 -0.375644 137 236 79
-0.074752 0.829012 -0.362854 117 233 81
-0.528097 0.732769 -0.196930 60 220 102
-0.587092 0.747493 -0.077326 52 222 117
-0.416109 0.694693 -0.429344 74 216 72
-0.470301 0.713899 -0.315422 67 218 87
-0.752192 0.601658 -0.235067 31 204 97
-0.614727 0.666853 -0.281061 49 212 91
-0.694625 0.590883 -0.365186 38 202 80
-0.136316 0.503330 -0.898652 110 191 12
-0.214206 0.574426 -0.797053 100 200 25
-0.480648 0.465832 -0.777705 66 186 28
-0.349545 0.521179 -0.791129 82 193 26
-0.397343 0.388461 -0.874114 76 177 16
-0.287366 0.628517 -0.681813 90 207 40
-0.349795 0.665349 -0.565980 82 212 55
-0.895264 0.135802 -0.501432 13 144 63
-0.834680 0.224319 -0.601543 21 156 50
-0.816221 0.084436 -0.641072 23 138 45
-0.774769 0.478834 -0.464074 28 188 68
-0.819660 0.362151 -0.539975 22 173 58
-0.873188 0.396922 -0.388049 16 178 78
-0.641436 0.250609 -0.801923 45 159 25
-0.743122 0.313206 -0.685034 32 167 40
-0.630589 0.389725 -0.741302 47 177 32
-0.493875 0.622017 -0.542821 64 206 58
-0.571474 0.519944 -0.654851 54 193 44
-0.643020 0.561150 -0.510551 45 199 62
-0.701820 0.710182 0.000000 38 218 127
-0.863228 0.533504 -0.160726 17 195 107
-0.790635 0.628531 -0.082227 26 207 117
-0.815269 0.648115 0.084789 23 210 138
-0.910602 0.562783 0.169547 11 199 149
-0.918280 0.000000 -0.404782 10 127 75
-0.947664 0.134983 -0.367282 6 144 80
-1.034788 0.139417 -0.086164 0 145 116
-0.994133 0.136604 -0.226436 0 144 98
-1.003712 0.000000 -0.139801 0 127 109
-0.951513 0.274248 -0.312855 6 162 87
-0.925695 0.401222 -0.247969 9 178 95
-1.019820 0.145260 0.395247 0 146 177
-0.984323 0.000000 0.433894 1 127 182
-0.991959 0.429943 0.265719 1 182 161
-1.024660 0.295331 0.336906 0 165 170
-1.054133 0.000000 0.146824 0 127 146
-1.063054 0.146075 0.242134 0 146 158
-1.066372 0.143672 0.088794 0 145 138
-0.967731 0.423570 -0.087260 4 181 116
-1.039656 0.287354 0.000000 0 164 127
-0.996953 0.436361 0.089895 0 183 138
0.580941 0.806094 0.216636 201 230 155
0.609637 0.776198 0.080295 205 226 137
0.469947 0.784575 0.484894 187 227 189
0.533031 0.809119 0.357494 195 230 173
0.771622 0.617200 0.241140 225 206 158
0.661370 0.717451 0.302386 211 218 166
0.727151 0.618552 0.382286 220 206 176
0.133001 0.491090 0.876800 144 190 239
0.216636 0.580941 0.806094 155 201 230
0.484894 0.469947 0.784575 189 187 227
0.357494 0.533031 0.809119 173 195 230
0.399163 0.390240 0.878118 178 177 239
0.302386 0.661370 0.717451 166 211 218
0.382286 0.727151 0.618552 176 220 206
0.876800 0.133001 0.491090 239 144 190
0.806094 0.216636 0.580941 230 155 201
0.776198 0.080295 0.609637 226 137 205
0.784575 0.484894 0.469947 227 189 187
0.809119 0.357494 0.533031 230 173 195
0.878118 0.399163 0.390240 239 178 177
0.617200 0.241140 0.771622 206 158 225
0.717451 0.302386 0.661370 218 166 211
0.618552 0.382286 0.727151 206 176 220
0.529132 0.666423 0.581572 194 212 201
0.581572 0.529132 0.666423 201 194 212
0.666423 0.581572 0.529132 212 201 194
-0.128328 0.349176 0.900945 111 172 242
0.000000 0.401929 0.911807 127 178 243
-0.371152 0.229385 0.856318 80 156 236
-0.253918 0.289663 0.880976 95 164 239
0.000000 0.136104 0.977166 127 144 252
-0.128981 0.213799 0.938652 111 154 247
-0.126725 0.078321 0.940588 111 137 247
-0.795460 -0.082288 0.624766 26 117 207
-0.712382 0.000000 0.703994 36 127 217
-0.475734 -0.143322 0.769754 66 109 225
-0.592364 -0.077495 0.745140 51 117 222
-0.567007 -0.221529 0.708871 55 99 217
-0.611948 0.080057 0.769774 49 137 225
-0.505013 0.152143 0.817128 63 146 231
0.000000 -0.372817 0.845764 127 79 235
-0.118050 -0.321210 0.828789 112 86 233
-0.119683 -0.441915 0.789001 112 71 228
-0.122470 -0.075691 0.909004 111 117 243
-0.119510 -0.198100 0.869731 112 102 238
0.000000 -0.129081 0.926744 127 111 245
-0.341028 -0.333404 0.750226 84 84 223
-0.232835 -0.265612 0.807829 97 93 230
-0.342432 -0.211634 0.790054 83 100 228
-0.375644 0.077387 0.858234 79 137 236
-0.362854 -0.074752 0.829012 81 117 233
-0.245456 0.000000 0.888066 96 127 240
-0.974585 -0.138817 0.377716 3 109 175
-0.898652 -0.136316 0.503330 12 110 191
-1.017593 -0.137100 0.084733 0 110 138
-1.015412 -0.139528 0.231282 0 109 156
-0.874114 -0.397343 0.388461 16 76 177
-0.953646 -0.274863 0.313556 5 92 167
-0.925251 -0.401030 0.247850 9 76 159
-0.853059 -0.129400 -0.477793 18 111 66
-0.902428 -0.128539 -0.349750 12 111 82
-0.858987 -0.372309 -0.230100 17 80 98
-0.880499 -0.253780 -0.289506 15 95 90
-0.809705 -0.368065 -0.359837 24 80 81
-0.946491 -0.130058 -0.215584 6 110 100
-0.986009 -0.132845 -0.082103 1 110 117
-0.641072 -0.816221 0.084436 45 23 138
-0.724483 -0.733115 0.000000 35 34 127
-0.621647 -0.791488 -0.081877 48 26 117
-0.875740 -0.541237 0.163056 15 58 148
-0.812748 -0.646111 0.084526 23 45 138
-0.801923 -0.641436 0.250609 25 45 159
-0.745682 -0.596451 -0.233033 32 51 97
-0.788114 -0.626528 -0.081964 27 47 117
-0.828365 -0.511958 -0.154235 21 62 107
-0.964735 -0.266646 0.000000 4 93 127
-0.901258 -0.394475 -0.081266 12 77 117
-0.930480 -0.407266 0.083901 8 75 138
-0.733115 0.000000 -0.724483 34 127 35
-0.791488 -0.081877 -0.621647 26 117 48
-0.541237 0.163056 -0.875740 58 148 15
-0.646111 0.084526 -0.812748 45 138 23
-0.596451 -0.233033 -0.745682 51 97 32
-0.626528 -0.081964 -0.788114 47 117 27
-0.511958 -0.154235 -0.828365 62 107 21
0.000000 0.433894 -0.984323 127 182 1
-0.138817 0.377716 -0.974585 109 175 3
-0.137100 0.084733 -1.017593 110 138 0
-0.139528 0.231282 -1.015412 109 156 0
0.000000 0.146824 -1.054133 127 146 0
-0.274863 0.313556 -0.953646 92 167 5
-0.401030 0.247850 -0.925251 76 159 9
-0.129400 -0.477793 -0.853059 111 66 18
-0.128539 -0.349750 -0.902428 111 82 12
0.000000 -0.404782 -0.918280 127 75 10
-0.372309 -0.230100 -0.858987 80 98 17
-0.253780 -0.289506 -0.880499 95 90 15
-0.368065 -0.359837 -0.809705 80 81 24
0.000000 -0.139801 -1.003712 127 109 0
-0.130058 -0.215584 -0.946491 110 100 6
-0.132845 -0.082103 -0.986009 110 117 1
-0.407266 0.083901 -0.930480 75 138 8
-0.266646 0.000000 -0.964735 93 127 4
-0.394475 -0.081266 -0.901258 77 117 12
0.229115 0.614406 -0.852529 156 205 18
0.142718 0.526969 -0.940858 145 194 7
0.378310 0.719589 -0.612119 175 219 49
0.310949 0.680097 -0.737766 167 214 33
0.426200 0.416673 -0.937597 181 180 7
0.376884 0.561942 -0.853005 175 199 18
0.507516 0.491872 -0.821178 192 190 22
0.590212 0.751465 -0.077737 202 223 117
0.540961 0.750619 -0.201727 196 223 101
0.672912 0.572413 -0.353771 213 200 82
0.609790 0.661498 -0.278803 205 211 91
0.715381 0.572214 -0.223564 218 200 98
0.492268 0.747244 -0.330155 190 222 85
0.443907 0.741102 -0.458026 184 221 69
0.772226 0.079885 -0.606518 225 137 50
0.788245 0.211839 -0.568078 228 154 55
0.831206 0.126085 -0.465554 233 143 68
0.637022 0.393701 -0.748864 208 177 32
0.722807 0.304644 -0.666307 219 166 42
0.646643 0.252643 -0.808433 209 159 24
0.813709 0.369885 -0.361616 231 174 81
0.775775 0.342761 -0.511064 226 171 62
0.738166 0.456212 -0.442149 221 185 71
0.516200 0.650135 -0.567359 193 210 55
0.638304 0.557034 -0.506806 208 198 62
0.585688 0.532876 -0.671138 202 195 41
0.644192 -0.820193 0.084847 209 22 138
0.614406 -0.852529 0.229115 205 18 156
0.526969 -0.940858 0.142718 194 7 145
0.719589 -0.612119 0.378310 219 49 175
0.680097 -0.737766 0.310949 214 33 167
0.765113 -0.611993 0.239105 225 49 157
0.416673 -0.937597 0.426200 180 7 181
0.561942 -0.853005 0.376884 199 18 175
0.491872 -0.821178 0.507516 190 22 192
0.751465 -0.077737 0.590212 223 117 202
0.750619 -0.201727 0.540961 223 101 196
0.834595 -0.126599 0.467451 233 111 187
0.572413 -0.353771 0.672912 200 82 213
0.661498 -0.278803 0.609790 211 91 205
0.572214 -0.223564 0.715381 200 98 218
0.814635 -0.370306 0.362028 231 80 173
0.747244 -0.330155 0.492268 222 85 190
0.741102 -0.458026 0.443907 221 69 184
0.079885 -0.606518 0.772226 137 50 225
0.211839 -0.568078 0.788245 154 55 228
0.126085 -0.465554 0.831206 143 68 233
0.393701 -0.748864 0.637022 177 32 208
0.304644 -0.666307 0.722807 166 42 219
0.252643 -0.808433 0.646643 159 24 209
0.369885 -0.361616 0.813709 174 81 231
0.342761 -0.511064 0.775775 171 62 226
0.456212 -0.442149 0.738166 185 71 221
0.650135 -0.567359 0.516200 210 55 193
0.557034 -0.506806 0.638304 198 62 208
0.532876 -0.671138 0.585688 195 41 202
0.395247 -1.019820 0.145260 177 0 146
0.433894 -0.984323 0.000000 182 1 127
0.265719 -0.991959 0.429943 161 1 182
0.336906 -1.024660 0.295331 170 0 165
0.146824 -1.054133 0.000000 146 0 127
0.242134 -1.063054 0.146075 158 0 146
0.088794 -1.066372 0.143672 138 0 145
-0.077326 -0.587092 0.747493 117 52 222
0.000000 -0.701820 0.710182 127 38 218
-0.160726 -0.863228 0.533504 107 17 195
-0.082227 -0.790635 0.628531 117 26 207
-0.235067 -0.752192 0.601658 97 31 204
0.084789 -0.815269 0.648115 138 23 210
0.169547 -0.910602 0.562783 149 11 199
-0.404782 -0.918280 0.000000 75 10 127
-0.367282 -0.947664 0.134983 80 6 144
-0.501432 -0.895264 0.135802 63 13 144
-0.086164 -1.034788 0.139417 116 0 145
-0.226436 -0.994133 0.136604 98 0 144
-0.139801 -1.003712 0.000000 109 0 127
-0.388049 -0.873188 0.396922 78 16 178
-0.312855 -0.951513 0.274248 87 6 162
-0.247969 -0.925695 0.401222 95 9 178
0.089895 -0.996953 0.436361 138 0 183
-0.087260 -0.967731 0.423570 116 4 181
0.000000 -1.039656 0.287354 127 0 164
0.377716 -0.974585 -0.138817 175 3 109
0.503330 -0.898652 -0.136316 191 12 110
0.084733 -1.017593 -0.137100 138 0 110
0.231282 -1.015412 -0.139528 156 0 109
0.388461 -0.874114 -0.397343 177 16 76
0.313556 -0.953646 -0.274863 167 5 92
0.247850 -0.925251 -0.401030 159 9 76
-0.477793 -0.853059 -0.129400 66 18 111
-0.349750 -0.902428 -0.128539 82 12 111
-0.230100 -0.858987 -0.372309 98 17 80
-0.289506 -0.880499 -0.253780 90 15 95
-0.359837 -0.809705 -0.368065 81 24 80
-0.215584 -0.946491 -0.130058 100 6 110
-0.082103 -0.986009 -0.132845 117 1 110
0.084436 -0.641072 -0.816221 138 45 23
0.000000 -0.724483 -0.733115 127 35 34
-0.081877 -0.621647 -0.791488 117 48 26
0.163056 -0.875740 -0.541237 148 15 58
0.084526 -0.812748 -0.646111 138 23 45
0.250609 -0.801923 -0.641436 159 25 45
-0.233033 -0.745682 -0.596451 97 32 51
-0.081964 -0.788114 -0.626528 117 27 47
-0.154235 -0.828365 -0.511958 107 21 62
0.000000 -0.964735 -0.266646 127 4 93
-0.081266 -0.901258 -0.394475 117 12 77
0.083901 -0.930480 -0.407266 138 8 75
0.574426 -0.797053 -0.214206 200 25 100
0.624766 -0.795460 -0.082288 207 26 117
0.465832 -0.777705 -0.480648 186 28 66
0.521179 -0.791129 -0.349545 193 26 82
0.708871 -0.567007 -0.221529 217 55 99
0.628517 -0.681813 -0.287366 207 40 90
0.665349 -0.565980 -0.349795 212 55 82
0.135802 -0.501432 -0.895264 144 63 13
0.224319 -0.601543 -0.834680 156 50 21
0.478834 -0.464074 -0.774769 188 68 28
0.362151 -0.539975 -0.819660 173 58 22
0.396922 -0.388049 -0.873188 178 78 16
0.313206 -0.685034 -0.743122 167 40 32
0.389725 -0.741302 -0.630589 177 32 47
0.789001 -0.119683 -0.441915 228 112 71
0.732769 -0.196930 -0.528097 220 102 60
0.747493 -0.077326 -0.587092 222 117 52
0.694693 -0.429344 -0.416109 216 72 74
0.713899 -0.315422 -0.470301 218 87 67
0.750226 -0.341028 -0.333404 223 84 84
0.601658 -0.235067 -0.752192 204 97 31
0.666853 -0.281061 -0.614727 212 91 49
0.590883 -0.365186 -0.694625 202 80 38
0.519944 -0.654851 -0.571474 193 44 54
0.561150 -0.510551 -0.643020 199 62 45
0.622017 -0.542821 -0.493875 206 58 64
0.703994 -0.712382 0.000000 217 36 127
0.769754 -0.475734 -0.143322 225 66 109
0.745140 -0.592364 -0.077495 222 51 117
0.769774 -0.611948 0.080057 225 49 137
0.817128 -0.505013 0.152143 231 63 146
0.845764 0.000000 -0.372817 235 127 79
0.828789 -0.118050 -0.321210 233 112 86
0.909004 -0.122470 -0.075691 243 111 117
0.869731 -0.119510 -0.198100 238 112 102
0.926744 0.000000 -0.129081 245 127 111
0.807829 -0.232835 -0.265612 230 97 93
0.790054 -0.342432 -0.211634 228 83 100
0.900945 -0.128328 0.349176 242 111 172
0.911807 0.000000 0.401929 243 127 178
0.856318 -0.371152 0.229385 236 80 156
0.880976 -0.253918 0.289663 239 95 164
0.977166 0.000000 0.136104 252 127 144
0.938652 -0.128981 0.213799 247 111 154
0.940588 -0.126725 0.078321 247 111 137
0.829012 -0.362854 -0.074752 233 81 117
0.888066 -0.245456 0.000000 240 96 127
0.858234 -0.375644 0.077387 236 79 137
0.124494 -0.338742 0.874025 143 84 238
0.371345 -0.229504 0.856762 174 98 236
0.253303 -0.288961 0.878843 159 90 239
0.126057 -0.208952 0.917374 143 100 244
0.129042 -0.079752 0.957783 143 117 249
0.689449 0.000000 0.681331 215 127 214
0.526559 0.158634 0.851990 194 147 236
0.613952 0.080319 0.772295 205 137 225
0.594368 -0.077757 0.747661 203 117 222
0.497280 -0.149813 0.804616 190 108 230
0.134771 0.366707 0.946181 144 174 248
0.133297 0.082382 0.989367 144 138 253
0.135527 0.224650 0.986295 144 156 253
0.274385 0.313012 0.951990 162 167 248
0.400065 0.247254 0.923026 178 159 245
0.391949 -0.080746 0.895485 177 117 241
0.404739 0.083381 0.924707 179 138 245
0.266163 0.000000 0.962988 161 127 250
-0.601543 -0.834680 0.224319 50 21 156
-0.464074 -0.774769 0.478834 68 28 188
-0.539975 -0.819660 0.362151 58 22 173
-0.685034 -0.743122 0.313206 40 32 167
-0.741302 -0.630589 0.389725 32 47 177
-0.196930 -0.528097 0.732769 102 60 220
-0.429344 -0.416109 0.694693 72 74 216
-0.315422 -0.470301 0.713899 87 67 218
-0.281061 -0.614727 0.666853 91 49 212
-0.365186 -0.694625 0.590883 80 38 202
-0.797053 -0.214206 0.574426 25 100 200
-0.777705 -0.480648 0.465832 28 66 186
-0.791129 -0.349545 0.521179 26 82 193
-0.681813 -0.287366 0.628517 40 90 207
-0.565980 -0.349795 0.665349 55 82 212
-0.510551 -0.643020 0.561150 62 45 199
-0.542821 -0.493875 0.622017 58 64 206
-0.654851 -0.571474 0.519944 44 54 193
-0.209410 -0.561562 -0.779204 100 55 28
-0.361210 -0.687062 -0.584450 81 39 52
-0.289623 -0.633454 -0.687168 90 46 39
-0.334812 -0.499212 -0.757784 84 63 30
-0.451966 -0.438034 -0.731296 69 71 34
-0.561562 -0.779204 -0.209410 55 28 100
-0.687062 -0.584450 -0.361210 39 52 81
-0.633454 -0.687168 -0.289623 46 39 90
-0.499212 -0.757784 -0.334812 63 30 84
-0.438034 -0.731296 -0.451966 71 34 69
-0.779204 -0.209410 -0.561562 28 100 55
-0.584450 -0.361210 -0.687062 52 81 39
-0.687168 -0.289623 -0.633454 39 90 46
-0.757784 -0.334812 -0.499212 30 84 63
-0.731296 -0.451966 -0.438034 34 69 71
-0.497619 -0.626733 -0.546936 64 47 57
-0.626733 -0.546936 -0.497619 47 57 64
-0.546936 -0.497619 -0.626733 57 64 47
0.710182 0.000000 -0.701820 218 127 38
0.533504 -0.160726 -0.863228 195 107 17
0.628531 -0.082227 -0.790635 207 117 26
0.648115 0.084789 -0.815269 210 138 23
0.562783 0.169547 -0.910602 199 149 11
0.134983 -0.367282 -0.947664 144 80 6
0.139417 -0.086164 -1.034788 145 116 0
0.136604 -0.226436 -0.994133 144 98 0
0.274248 -0.312855 -0.951513 162 87 6
0.401222 -0.247969 -0.925695 178 95 9
0.145260 0.395247 -1.019820 146 177 0
0.429943 0.265719 -0.991959 182 161 1
0.295331 0.336906 -1.024660 165 170 0
0.146075 0.242134 -1.063054 146 158 0
0.143672 0.088794 -1.066372 145 138 0
0.423570 -0.087260 -0.967731 181 116 4
0.287354 0.000000 -1.039656 164 127 0
0.436361 0.089895 -0.996953 183 138 0
0.946181 0.134771 0.366707 248 144 174
0.989367 0.133297 0.082382 253 144 138
0.986295 0.135527 0.224650 253 144 156
0.951990 0.274385 0.313012 248 162 167
0.923026 0.400065 0.247254 245 178 159
0.874025 0.124494 -0.338742 238 143 84
0.856762 0.371345 -0.229504 236 174 98
0.878843 0.253303 -0.288961 239 159 90
0.917374 0.126057 -0.208952 244 143 100
0.957783 0.129042 -0.079752 249 143 117
0.681331 0.689449 0.000000 214 215 127
0.851990 0.526559 0.158634 236 194 147
0.772295 0.613952 0.080319 225 205 137
0.747661 0.594368 -0.077757 222 203 117
0.804616 0.497280 -0.149813 230 190 108
0.962988 0.266163 0.000000 250 161 127
0.895485 0.391949 -0.080746 241 177 117
0.924707 0.404739 0.083381 245 179 138
3 0 162 164
3 42 163 162
3 44 164 163
3 162 163 164
3 12 165 167
3 43 166 165
3 42 167 166
3 165 166 167
3 14 168 170
3 44 169 168
3 43 170 169
3 168 169 170
3 42 166 163
3 43 169 166
3 44 163 169
3 166 169 163
3 11 171 173
3 45 172 171
3 47 173 172
3 171 172 173
3 13 174 176
3 46 175 174
3 45 176 175
3 174 175 176
3 12 177 179
3 47 178 177
3 46 179 178
3 177 178 179
3 45 175 172
3 46 178 175
3 47 172 178
3 175 178 172
3 5 180 182
3 48 181 180
3 50 182 181
3 180 181 182
3 14 183 185
3 49 184 183
3 48 185 184
3 183 184 185
3 13 186 188
3 50 187 186
3 49 188 187
3 186 187 188
3 48 184 181
3 49 187 184
3 50 181 187
3 184 187 181
3 12 179 165
3 46 189 179
3 43 165 189
3 179 189 165
3 13 188 174
3 49 190 188
3 46 174 190
3 188 190 174
3 14 170 183
3 43 191 170
3 49 183 191
3 170 191 183
3 46 190 189
3 49 191 190
3 43 189 191
3 190 191 189
3 0 164 193
3 44 192 164
3 52 193 192
3 164 192 193
3 14 194 168
3 51 195 194
3 44 168 195
3 194 195 168
3 16 196 198
3 52 197 196
3 51 198 197
3 196 197 198
3 44 195 192
3 51 197 195
3 52 192 197
3 195 197 192
3 5 199 180
3 53 200 199
3 48 180 200
3 199 200 180
3 15 201 203
3 54 202 201
3 53 203 202
3 201 202 203
3 14 185 205
3 48 204 185
3 54 205 204
3 185 204 205
3 53 202 200
3 54 204 202
3 48 200 204
3 202 204 200
3 1 206 208
3 55 207 206
3 57 208 207
3 206 207 208
3 16 209 211
3 56 210 209
3 55 211 210
3 209 210 211
3 15 212 214
3 57 213 212
3 56 214 213
3 212 213 214
3 55 210 207
3 56 213 210
3 57 207 213
3 210 213 207
3 14 205 194
3 54 215 205
3 51 194 215
3 205 215 194
3 15 214 201
3 56 216 214
3 54 201 216
3 214 216 201
3 16 198 209
3 51 217 198
3 56 209 217
3 198 217 209
3 54 216 215
3 56 217 216
3 51 215 217
3 216 217 215
3 0 193 219
3 52 218 193
3 59 219 218
3 193 218 219
3 16 220 196
3 58 221 220
3 52 196 221
3 220 221 196
3 18 222 224
3 59 223 222
3 58 224 223
3 222 223 224
3 52 221 218
3 58 223 221
3 59 218 223
3 221 223 218
3 1 225 206
3 60 226 225
3 55 206 226
3 225 226 206
3 17 227 229
3 61 228 227
3 60 229 228
3 227 228 229
3 16 211 231
3 55 230 211
3 61 231 230
3 211 230 231
3 60 228 226
3 61 230 228
3 55 226 230
3 228 230 226
3 7 232 234
3 62 233 232
3 64 234 233
3 232 233 234
3 18 235 237
3 63 236 235
3 62 237 236
3 235 236 237
3 17 238 240
3 64 239 238
3 63 240 239
3 238 239 240
3 62 236 233
3 63 239 236
3 64 233 239
3 236 239 233
3 16 231 220
3 61 241 231
3 58 220 241
3 231 241 220
3 17 240 227
3 63 242 240
3 61 227 242
3 240 242 227
3 18 224 235
3 58 243 224
3 63 235 243
3 224 243 235
3 61 242 241
3 63 243 242
3 58 241 243
3 242 243 241
3 0 219 245
3 59 244 219
3 66 245 244
3 219 244 245
3 18 246 222
3 65 247 246
3 59 222 247
3 246 247 222
3 20 248 250
3 66 249 248
3 65 250 249
3 248 249 250
3 59 247 244
3 65 249 247
3 66 244 249
3 247 249 244
3 7 251 232
3 67 252 251
3 62 232 252
3 251 252 232
3 19 253 255
3 68 254 253
3 67 255 254
3 253 254 255
3 18 237 257
3 62 256 237
3 68 257 256
3 237 256 257
3 67 254 252
3 68 256 254
3 62 252 256
3 254 256 252
3 10 258 260
3 69 259 258
3 71 260 259
3 258 259 260
3 20 261 263
3 70 262 261
3 69 263 262
3 261 262 263
3 19 264 266
3 71 265 264
3 70 266 265
3 264 265 266
3 69 262 259
3 70 265 262
3 71 259 265
3 262 265 259
3 18 257 246
3 68 267 257
3 65 246 267
3 257 267 246
3 19 266 253
3 70 268 266
3 68 253 268
3 266 268 253
3 20 250 261
3 65 269 250
3 70 261 269
3 250 269 261
3 68 268 267
3 70 269 268
3 65 267 269
3 268 269 267
3 0 245 162
3 66 270 245
3 42 162 270
3 245 270 162
3 20 271 248
3 72 272 271
3 66 248 272
3 271 272 248
3 12 167 274
3 42 273 167
3 72 274 273
3 167 273 274
3 66 272 270
3 72 273 272
3 42 270 273
3 272 273 270
3 10 275 258
3 73 276 275
3 69 258 276
3 275 276 258
3 21 277 279
3 74 278 277
3 73 279 278
3 277 278 279
3 20 263 281
3 69 280 263
3 74 281 280
3 263 280 281
3 73 278 276
3 74 280 278
3 69 276 280
3 278 280 276
3 11 173 283
3 47 282 173
3 76 283 282
3 173 282 283
3 12 284 177
3 75 285 284
3 47 177 285
3 284 285 177
3 21 286 288
3 76 287 286
3 75 288 287
3 286 287 288
3 47 285 282
3 75 287 285
3 76 282 287
3 285 287 282
3 20 281 271
3 74 289 281
3 72 271 289
3 281 289 271
3 21 288 277
3 75 290 288
3 74 277 290
3 288 290 277
3 12 274 284
3 72 291 274
3 75 284 291
3 274 291 284
3 74 290 289
3 75 291 290
3 72 289 291
3 290 291 289
3 1 208 293
3 57 292 208
3 78 293 292
3 208 292 293
3 15 294 212
3 77 295 294
3 57 212 295
3 294 295 212
3 23 296 298
3 78 297 296
3 77 298 297
3 296 297 298
3 57 295 292
3 77 297 295
3 78 292 297
3 295 297 292
3 5 299 199
3 79 300 299
3 53 199 300
3 299 300 199
3 22 301 303
3 80 302 301
3 79 303 302
3 301 302 303
3 15 203 305
3 53 304 203
3 80 305 304
3 203 304 305
3 79 302 300
3 80 304 302
3 53 300 304
3 302 304 300
3 9 306 308
3 81 307 306
3 83 308 307
3 306 307 308
3 23 309 311
3 82 310 309
3 81 311 310
3 309 310 311
3 22 312 314
3 83 313 312
3 82 314 313
3 312 313 314
3 81 310 307
3 82 313 310
3 83 307 313
3 310 313 307
3 15 305 294
3 80 315 305
3 77 294 315
3 305 315 294
3 22 314 301
3 82 316 314
3 80 301 316
3 314 316 301
3 23 298 309
3 77 317 298
3 82 309 317
3 298 317 309
3 80 316 315
3 82 317 316
3 77 315 317
3 316 317 315
3 5 182 319
3 50 318 182
3 85 319 318
3 182 318 319
3 13 320 186
3 84 321 320
3 50 186 321
3 320 321 186
3 25 322 324
3 85 323 322
3 84 324 323
3 322 323 324
3 50 321 318
3 84 323 321
3 85 318 323
3 321 323 318
3 11 325 171
3 86 326 325
3 45 171 326
3 325 326 171
3 24 327 329
3 87 328 327
3 86 329 328
3 327 328 329
3 13 176 331
3 45 330 176
3 87 331 330
3 176 330 331
3 86 328 326
3 87 330 328
3 45 326 330
3 328 330 326
3 4 332 334
3 88 333 332
3 90 334 333
3 332 333 334
3 25 335 337
3 89 336 335
3 88 337 336
3 335 336 337
3 24 338 340
3 90 339 338
3 89 340 339
3 338 339 340
3 88 336 333
3 89 339 336
3 90 333 339
3 336 339 333
3 13 331 320
3 87 341 331
3 84 320 341
3 331 341 320
3 24 340 327
3 89 342 340
3 87 327 342
3 340 342 327
3 25 324 335
3 84 343 324
3 89 335 343
3 324 343 335
3 87 342 341
3 89 343 342
3 84 341 343
3 342 343 341
3 11 283 345
3 76 344 283
3 92 345 344
3 283 344 345
3 21 346 286
3 91 347 346
3 76 286 347
3 346 347 286
3 27 348 350
3 92 349 348
3 91 350 349
3 348 349 350
3 76 347 344
3 91 349 347
3 92 344 349
3 347 349 344
3 10 351 275
3 93 352 351
3 73 275 352
3 351 352 275
3 26 353 355
3 94 354 353
3 93 355 354
3 353 354 355
3 21 279 357
3 73 356 279
3 94 357 356
3 279 356 357
3 93 354 352
3 94 356 354
3 73 352 356
3 354 356 352
3 2 358 360
3 95 359 358
3 97 360 359
3 358 359 360
3 27 361 363
3 96 362 361
3 95 363 362
3 361 362 363
3 26 364 366
3 97 365 364
3 96 366 365
3 364 365 366
3 95 362 359
3 96 365 362
3 97 359 365
3 362 365 359
3 21 357 346
3 94 367 357
3 91 346 367
3 357 367 346
3 26 366 353
3 96 368 366
3 94 353 368
3 366 368 353
3 27 350 361
3 91 369 350
3 96 361 369
3 350 369 361
3 94 368 367
3 96 369 368
3 91 367 369
3 368 369 367
3 10 260 371
3 71 370 260
3 99 371 370
3 260 370 371
3 19 372 264
3 98 373 372
3 71 264 373
3 372 373 264
3 29 374 376
3 99 375 374
3 98 376 375
3 374 375 376
3 71 373 370
3 98 375 373
3 99 370 375
3 373 375 370
3 7 377 251
3 100 378 377
3 67 251 378
3 377 378 251
3 28 379 381
3 101 380 379
3 100 381 380
3 379 380 381
3 19 255 383
3 67 382 255
3 101 383 382
3 255 382 383
3 100 380 378
3 101 382 380
3 67 378 382
3 380 382 378
3 6 384 386
3 102 385 384
3 104 386 385
3 384 385 386
3 29 387 389
3 103 388 387
3 102 389 388
3 387 388 389
3 28 390 392
3 104 391 390
3 103 392 391
3 390 391 392
3 102 388 385
3 103 391 388
3 104 385 391
3 388 391 385
3 19 383 372
3 101 393 383
3 98 372 393
3 383 393 372
3 28 392 379
3 103 394 392
3 101 379 394
3 392 394 379
3 29 376 387
3 98 395 376
3 103 387 395
3 376 395 387
3 101 394 393
3 103 395 394
3 98 393 395
3 394 395 393
3 7 234 397
3 64 396 234
3 106 397 396
3 234 396 397
3 17 398 238
3 105 399 398
3 64 238 399
3 398 399 238
3 31 400 402
3 106 401 400
3 105 402 401
3 400 401 402
3 64 399 396
3 105 401 399
3 106 396 401
3 399 401 396
3 1 403 225
3 107 404 403
3 60 225 404
3 403 404 225
3 30 405 407
3 108 406 405
3 107 407 406
3 405 406 407
3 17 229 409
3 60 408 229
3 108 409 408
3 229 408 409
3 107 406 404
3 108 408 406
3 60 404 408
3 406 408 404
3 8 410 412
3 109 411 410
3 111 412 411
3 410 411 412
3 31 413 415
3 110 414 413
3 109 415 414
3 413 414 415
3 30 416 418
3 111 417 416
3 110 418 417
3 416 417 418
3 109 414 411
3 110 417 414
3 111 411 417
3 414 417 411
3 17 409 398
3 108 419 409
3 105 398 419
3 409 419 398
3 30 418 405
3 110 420 418
3 108 405 420
3 418 420 405
3 31 402 413
3 105 421 402
3 110 413 421
3 402 421 413
3 108 420 419
3 110 421 420
3 105 419 421
3 420 421 419
3 3 422 424
3 112 423 422
3 114 424 423
3 422 423 424
3 32 425 427
3 113 426 425
3 112 427 426
3 425 426 427
3 34 428 430
3 114 429 428
3 113 430 429
3 428 429 430
3 112 426 423
3 113 429 426
3 114 423 429
3 426 429 423
3 9 431 433
3 115 432 431
3 117 433 432
3 431 432 433
3 33 434 436
3 116 435 434
3 115 436 435
3 434 435 436
3 32 437 439
3 117 438 437
3 116 439 438
3 437 438 439
3 115 435 432
3 116 438 435
3 117 432 438
3 435 438 432
3 4 440 442
3 118 441 440
3 120 442 441
3 440 441 442
3 34 443 445
3 119 444 443
3 118 445 444
3 443 444 445
3 33 446 448
3 120 447 446
3 119 448 447
3 446 447 448
3 118 444 441
3 119 447 444
3 120 441 447
3 444 447 441
3 32 439 425
3 116 449 439
3 113 425 449
3 439 449 425
3 33 448 434
3 119 450 448
3 116 434 450
3 448 450 434
3 34 430 443
3 113 451 430
3 119 443 451
3 430 451 443
3 116 450 449
3 119 451 450
3 113 449 451
3 450 451 449
3 3 424 453
3 114 452 424
3 122 453 452
3 424 452 453
3 34 454 428
3 121 455 454
3 114 428 455
3 454 455 428
3 36 456 458
3 122 457 456
3 121 458 457
3 456 457 458
3 114 455 452
3 121 457 455
3 122 452 457
3 455 457 452
3 4 459 440
3 123 460 459
3 118 440 460
3 459 460 440
3 35 461 463
3 124 462 461
3 123 463 462
3 461 462 463
3 34 445 465
3 118 464 445
3 124 465 464
3 445 464 465
3 123 462 460
3 124 464 462
3 118 460 464
3 462 464 460
3 2 466 468
3 125 467 466
3 127 468 467
3 466 467 468
3 36 469 471
3 126 470 469
3 125 471 470
3 469 470 471
3 35 472 474
3 127 473 472
3 126 474 473
3 472 473 474
3 125 470 467
3 126 473 470
3 127 467 473
3 470 473 467
3 34 465 454
3 124 475 465
3 121 454 475
3 465 475 454
3 35 474 461
3 126 476 474
3 124 461 476
3 474 476 461
3 36 458 469
3 121 477 458
3 126 469 477
3 458 477 469
3 124 476 475
3 126 477 476
3 121 475 477
3 476 477 475
3 3 453 479
3 122 478 453
3 129 479 478
3 453 478 479
3 36 480 456
3 128 481 480
3 122 456 481
3 480 481 456
3 38 482 484
3 129 483 482
3 128 484 483
3 482 483 484
3 122 481 478
3 128 483 481
3 129 478 483
3 481 483 478
3 2 485 466
3 130 486 485
3 125 466 486
3 485 486 466
3 37 487 489
3 131 488 487
3 130 489 488
3 487 488 489
3 36 471 491
3 125 490 471
3 131 491 490
3 471 490 491
3 130 488 486
3 131 490 488
3 125 486 490
3 488 490 486
3 6 492 494
3 132 493 492
3 134 494 493
3 492 493 494
3 38 495 497
3 133 496 495
3 132 497 496
3 495 496 497
3 37 498 500
3 134 499 498
3 133 500 499
3 498 499 500
3 132 496 493
3 133 499 496
3 134 493 499
3 496 499 493
3 36 491 480
3 131 501 491
3 128 480 501
3 491 501 480
3 37 500 487
3 133 502 500
3 131 487 502
3 500 502 487
3 38 484 495
3 128 503 484
3 133 495 503
3 484 503 495
3 131 502 501
3 133 503 502
3 128 501 503
3 502 503 501
3 3 479 505
3 129 504 479
3 136 505 504
3 479 504 505
3 38 506 482
3 135 507 506
3 129 482 507
3 506 507 482
3 40 508 510
3 136 509 508
3 135 510 509
3 508 509 510
3 129 507 504
3 135 509 507
3 136 504 509
3 507 509 504
3 6 511 492
3 137 512 511
3 132 492 512
3 511 512 492
3 39 513 515
3 138 514 513
3 137 515 514
3 513 514 515
3 38 497 517
3 132 516 497
3 138 517 516
3 497 516 517
3 137 514 512
3 138 516 514
3 132 512 516
3 514 516 512
3 8 518 520
3 139 519 518
3 141 520 519
3 518 519 520
3 40 521 523
3 140 522 521
3 139 523 522
3 521 522 523
3 39 524 526
3 141 525 524
3 140 526 525
3 524 525 526
3 139 522 519
3 140 525 522
3 141 519 525
3 522 525 519
3 38 517 506
3 138 527 517
3 135 506 527
3 517 527 506
3 39 526 513
3 140 528 526
3 138 513 528
3 526 528 513
3 40 510 521
3 135 529 510
3 140 521 529
3 510 529 521
3 138 528 527
3 140 529 528
3 135 527 529
3 528 529 527
3 3 505 422
3 136 530 505
3 112 422 530
3 505 530 422
3 40 531 508
3 142 532 531
3 136 508 532
3 531 532 508
3 32 427 534
3 112 533 427
3 142 534 533
3 427 533 534
3 136 532 530
3 142 533 532
3 112 530 533
3 532 533 530
3 8 535 518
3 143 536 535
3 139 518 536
3 535 536 518
3 41 537 539
3 144 538 537
3 143 539 538
3 537 538 539
3 40 523 541
3 139 540 523
3 144 541 540
3 523 540 541
3 143 538 536
3 144 540 538
3 139 536 540
3 538 540 536
3 9 433 543
3 117 542 433
3 146 543 542
3 433 542 543
3 32 544 437
3 145 545 544
3 117 437 545
3 544 545 437
3 41 546 548
3 146 547 546
3 145 548 547
3 546 547 548
3 117 545 542
3 145 547 545
3 146 542 547
3 545 547 542
3 40 541 531
3 144 549 541
3 142 531 549
3 541 549 531
3 41 548 537
3 145 550 548
3 144 537 550
3 548 550 537
3 32 534 544
3 142 551 534
3 145 544 551
3 534 551 544
3 144 550 549
3 145 551 550
3 142 549 551
3 550 551 549
3 4 442 332
3 120 552 442
3 88 332 552
3 442 552 332
3 33 553 446
3 147 554 553
3 120 446 554
3 553 554 446
3 25 337 556
3 88 555 337
3 147 556 555
3 337 555 556
3 120 554 552
3 147 555 554
3 88 552 555
3 554 555 552
3 9 308 431
3 83 557 308
3 115 431 557
3 308 557 431
3 22 558 312
3 148 559 558
3 83 312 559
3 558 559 312
3 33 436 561
3 115 560 436
3 148 561 560
3 436 560 561
3 83 559 557
3 148 560 559
3 115 557 560
3 559 560 557
3 5 319 299
3 85 562 319
3 79 299 562
3 319 562 299
3 25 563 322
3 149 564 563
3 85 322 564
3 563 564 322
3 22 303 566
3 79 565 303
3 149 566 565
3 303 565 566
3 85 564 562
3 149 565 564
3 79 562 565
3 564 565 562
3 33 561 553
3 148 567 561
3 147 553 567
3 561 567 553
3 22 566 558
3 149 568 566
3 148 558 568
3 566 568 558
3 25 556 563
3 147 569 556
3 149 563 569
3 556 569 563
3 148 568 567
3 149 569 568
3 147 567 569
3 568 569 567
3 2 468 358
3 127 570 468
3 95 358 570
3 468 570 358
3 35 571 472
3 150 572 571
3 127 472 572
3 571 572 472
3 27 363 574
3 95 573 363
3 150 574 573
3 363 573 574
3 127 572 570
3 150 573 572
3 95 570 573
3 572 573 570
3 4 334 459
3 90 575 334
3 123 459 575
3 334 575 459
3 24 576 338
3 151 577 576
3 90 338 577
3 576 577 338
3 35 463 579
3 123 578 463
3 151 579 578
3 463 578 579
3 90 577 575
3 151 578 577
3 123 575 578
3 577 578 575
3 11 345 325
3 92 580 345
3 86 325 580
3 345 580 325
3 27 581 348
3 152 582 581
3 92 348 582
3 581 582 348
3 24 329 584
3 86 583 329
3 152 584 583
3 329 583 584
3 92 582 580
3 152 583 582
3 86 580 583
3 582 583 580
3 35 579 571
3 151 585 579
3 150 571 585
3 579 585 571
3 24 584 576
3 152 586 584
3 151 576 586
3 584 586 576
3 27 574 581
3 150 587 574
3 152 581 587
3 574 587 581
3 151 586 585
3 152 587 586
3 150 585 587
3 586 587 585
3 6 494 384
3 134 588 494
3 102 384 588
3 494 588 384
3 37 589 498
3 153 590 589
3 134 498 590
3 589 590 498
3 29 389 592
3 102 591 389
3 153 592 591
3 389 591 592
3 134 590 588
3 153 591 590
3 102 588 591
3 590 591 588
3 2 360 485
3 97 593 360
3 130 485 593
3 360 593 485
3 26 594 364
3 154 595 594
3 97 364 595
3 594 595 364
3 37 489 597
3 130 596 489
3 154 597 596
3 489 596 597
3 97 595 593
3 154 596 595
3 130 593 596
3 595 596 593
3 10 371 351
3 99 598 371
3 93 351 598
3 371 598 351
3 29 599 374
3 155 600 599
3 99 374 600
3 599 600 374
3 26 355 602
3 93 601 355
3 155 602 601
3 355 601 602
3 99 600 598
3 155 601 600
3 93 598 601
3 600 601 598
3 37 597 589
3 154 603 597
3 153 589 603
3 597 603 589
3 26 602 594
3 155 604 602
3 154 594 604
3 602 604 594
3 29 592 599
3 153 605 592
3 155 599 605
3 592 605 599
3 154 604 603
3 155 605 604
3 153 603 605
3 604 605 603
3 8 520 410
3 141 606 520
3 109 410 606
3 520 606 410
3 39 607 524
3 156 608 607
3 141 524 608
3 607 608 524
3 31 415 610
3 109 609 415
3 156 610 609
3 415 609 610
3 141 608 606
3 156 609 608
3 109 606 609
3 608 609 606
3 6 386 511
3 104 611 386
3 137 511 611
3 386 611 511
3 28 612 390
3 157 613 612
3 104 390 613
3 612 613 390
3 39 515 615
3 137 614 515
3 157 615 614
3 515 614 615
3 104 613 611
3 157 614 613
3 137 611 614
3 613 614 611
3 7 397 377
3 106 616 397
3 100 377 616
3 397 616 377
3 31 617 400
3 158 618 617
3 106 400 618
3 617 618 400
3 28 381 620
3 100 619 381
3 158 620 619
3 381 619 620
3 106 618 616
3 158 619 618
3 100 616 619
3 618 619 616
3 39 615 607
3 157 621 615
3 156 607 621
3 615 621 607
3 28 620 612
3 158 622 620
3 157 612 622
3 620 622 612
3 31 610 617
3 156 623 610
3 158 617 623
3 610 623 617
3 157 622 621
3 158 623 622
3 156 621 623
3 622 623 621
3 9 543 306
3 146 624 543
3 81 306 624
3 543 624 306
3 41 625 546
3 159 626 625
3 146 546 626
3 625 626 546
3 23 311 628
3 81 627 311
3 159 628 627
3 311 627 628
3 146 626 624
3 159 627 626
3 81 624 627
3 626 627 624
3 8 412 535
3 111 629 412
3 143 535 629
3 412 629 535
3 30 630 416
3 160 631 630
3 111 416 631
3 630 631 416
3 41 539 633
3 143 632 539
3 160 633 632
3 539 632 633
3 111 631 629
3 160 632 631
3 143 629 632
3 631 632 629
3 1 293 403
3 78 634 293
3 107 403 634
3 293 634 403
3 23 635 296
3 161 636 635
3 78 296 636
3 635 636 296
3 30 407 638
3 107 637 407
3 161 638 637
3 407 637 638
3 78 636 634
3 161 637 636
3 107 634 637
3 636 637 634
3 41 633 625
3 160 639 633
3 159 625 639
3 633 639 625
3 30 638 630
3 161 640 638
3 160 630 640
3 638 640 630
3 23 628 635
3 159 641 628
3 161 635 641
3 628 641 635
3 160 640 639
3 161 641 640
3 159 639 641
3 640 641 639
